<?xml version="1.0" standalone="no"?>
<!DOCTYPE svg PUBLIC "-//W3C//DTD SVG 20010904//EN"
 "http://www.w3.org/TR/2001/REC-SVG-20010904/DTD/svg10.dtd">
<svg version="1.0" xmlns="http://www.w3.org/2000/svg"
 width="350.000000pt" height="350.000000pt" viewBox="0 0 350.000000 350.000000"
 preserveAspectRatio="xMidYMid meet">

<g transform="translate(0.000000,350.000000) scale(0.100000,-0.100000)"
fill="#000000" stroke="none">
<path d="M2095 3161 c-22 -10 -53 -33 -70 -50 -26 -28 -30 -41 -33 -103 -8
-138 31 -268 80 -268 33 0 46 -11 48 -40 5 -55 2 -60 -24 -48 -26 11 -56 5
-56 -12 0 -5 8 -10 18 -10 10 0 23 -5 30 -12 9 -9 17 -9 36 1 45 25 128 -8 86
-34 -13 -8 -13 -55 0 -55 5 0 12 15 15 33 11 55 29 71 83 72 26 0 49 5 52 10
7 14 -66 19 -100 6 -19 -6 -42 -6 -68 1 -33 8 -41 15 -46 40 -9 44 -9 44 25
58 40 17 82 72 77 102 -3 20 -6 18 -26 -19 -37 -70 -117 -96 -160 -50 -31 33
-42 72 -44 156 -2 86 12 139 45 169 22 20 103 52 132 52 8 0 15 5 15 10 0 16
-72 11 -115 -9z"/>
<path d="M2271 3130 c50 -41 63 -76 54 -152 -18 -163 0 -228 95 -358 62 -86
63 -89 51 -235 -18 -202 -18 -205 -60 -300 -35 -80 -59 -111 -54 -69 0 10 -4
13 -15 9 -16 -6 -122 34 -122 46 0 4 5 11 10 14 6 3 10 31 10 61 0 30 5 75 11
99 6 25 8 53 4 62 -12 30 -37 -53 -37 -125 -1 -78 -24 -113 -78 -115 -30 -2
-35 2 -43 29 -5 18 -22 38 -39 49 -17 10 -29 14 -26 9 27 -57 48 -108 48 -115
0 -6 -27 -9 -62 -7 l-63 3 4 103 c4 129 -14 137 -24 10 -8 -105 -11 -114 -32
-97 -12 10 -13 29 -8 98 4 47 13 100 20 116 24 56 26 91 5 110 -28 25 -25 65
8 111 82 114 101 144 89 144 -16 0 -75 -70 -111 -133 -25 -42 -27 -52 -18 -86
7 -31 6 -42 -5 -52 -8 -8 -31 -43 -52 -79 -36 -63 -38 -65 -76 -64 -46 2 -227
24 -236 29 -3 2 -6 30 -7 61 -2 65 -31 134 -69 164 -14 11 -49 27 -78 36 -46
15 -61 15 -114 4 -79 -17 -127 -58 -180 -155 -40 -71 -41 -77 -41 -165 0 -59
5 -101 14 -118 23 -45 112 -122 141 -122 33 0 32 15 -3 29 -15 7 -47 30 -69
52 -33 32 -44 52 -54 97 -6 31 -9 77 -6 103 10 86 83 201 147 233 110 56 250
-1 280 -115 21 -76 13 -81 -101 -64 -44 7 -49 5 -75 -25 -34 -38 -47 -76 -33
-101 7 -13 5 -27 -4 -46 -12 -24 -30 -133 -30 -183 0 -8 13 -55 28 -105 15
-49 31 -130 35 -180 5 -49 14 -134 20 -188 l12 -98 -28 -42 c-15 -23 -50 -63
-78 -89 -28 -25 -48 -49 -45 -53 11 -10 92 50 128 95 46 57 50 87 35 226 -7
65 -15 148 -19 184 -8 81 -31 178 -51 218 -12 25 -13 45 -5 107 9 76 22 105
47 105 8 0 19 -9 26 -20 10 -15 24 -20 57 -20 40 0 121 -34 121 -50 0 -4 -9
-15 -21 -26 -44 -40 -59 -87 -59 -186 0 -51 7 -120 14 -153 8 -33 17 -98 21
-145 4 -47 16 -122 26 -168 10 -45 19 -95 19 -109 0 -28 -44 -93 -63 -93 -39
0 -96 -27 -136 -65 -58 -54 -111 -68 -144 -37 -12 11 -33 23 -45 27 -14 4 -30
21 -38 42 -15 34 -36 40 -42 12 -4 -24 33 -64 99 -108 46 -31 67 -39 86 -35
23 6 24 5 12 -13 -10 -17 -9 -29 7 -67 10 -26 27 -52 37 -58 31 -16 32 0 3 31
-18 19 -27 37 -24 52 3 22 7 24 48 20 25 -2 53 -7 62 -12 14 -7 34 7 99 72
l81 82 -7 106 c-4 58 -11 129 -17 156 -5 28 -13 95 -18 150 -4 55 -15 116 -23
135 -29 65 -31 75 -33 160 -3 104 8 143 50 175 53 40 85 30 113 -35 15 -37
106 -84 145 -76 24 5 39 0 63 -18 l32 -25 -13 -53 c-9 -31 -12 -71 -8 -95 5
-36 3 -43 -10 -43 -9 0 -26 15 -37 34 -20 34 -77 76 -104 76 -24 0 -27 -18
-11 -80 9 -33 20 -110 26 -171 9 -91 8 -124 -5 -184 -20 -101 -19 -170 5 -234
15 -38 20 -72 18 -115 l-3 -61 -45 -13 c-25 -8 -60 -18 -79 -24 -18 -6 -48
-20 -65 -32 -18 -12 -51 -28 -73 -35 -38 -12 -45 -12 -82 6 -49 24 -53 15 -9
-22 26 -22 38 -26 68 -21 42 7 53 -2 138 -120 48 -66 52 -76 52 -127 0 -31 -4
-58 -9 -61 -5 -3 -61 -13 -125 -22 l-115 -17 -21 24 c-11 13 -53 67 -92 119
-40 52 -141 180 -225 283 l-153 188 0 73 0 73 38 7 c63 10 181 7 202 -6 24
-15 37 -4 20 17 -10 12 -37 15 -134 15 -158 0 -158 0 -150 -104 7 -77 9 -81
63 -150 31 -39 139 -182 241 -319 102 -136 192 -249 200 -252 9 -3 51 2 94 10
43 8 97 15 121 15 23 0 47 6 52 13 6 6 13 50 16 96 l7 84 -49 61 c-27 33 -61
73 -76 88 l-27 27 29 25 c15 14 51 30 78 36 28 6 70 21 95 33 l45 22 3 63 c2
46 -3 83 -19 130 -19 56 -21 77 -15 151 20 233 22 278 15 301 -11 39 -20 150
-11 150 14 0 132 -119 132 -132 0 -8 14 -30 31 -51 l30 -37 -29 0 c-20 0 -44
13 -75 40 -25 22 -48 40 -51 40 -13 0 -4 -26 17 -50 44 -50 79 -70 120 -70 22
0 63 -11 91 -24 28 -13 76 -27 107 -31 49 -6 63 -4 110 20 30 15 68 40 85 55
27 23 55 31 180 55 244 45 265 50 264 60 -1 12 2 12 -205 -25 -88 -15 -163
-26 -168 -23 -4 2 4 23 17 46 55 95 74 265 39 352 -25 64 -16 130 29 220 14
28 30 70 36 95 9 38 18 252 13 326 0 12 -25 52 -55 89 -98 123 -103 141 -96
345 2 74 -23 147 -61 174 -41 28 -55 17 -18 -14z m-359 -813 c-3 -12 -14 -35
-23 -52 -12 -21 -19 -57 -21 -117 -2 -49 -6 -88 -9 -88 -4 0 -20 7 -35 15 -33
17 -132 20 -166 4 -27 -12 -80 10 -163 67 -58 39 -66 41 -89 15 -14 -15 -15
-24 -7 -40 20 -37 -8 -34 -52 5 -23 21 -46 44 -51 52 -11 18 60 92 89 92 11 0
61 -14 110 -31 50 -18 119 -34 155 -36 36 -3 84 -11 108 -19 54 -18 49 -19 56
12 9 36 86 155 96 149 4 -3 5 -15 2 -28z m-431 -190 c19 -12 55 -35 82 -50 52
-31 60 -47 22 -47 -48 0 -175 86 -161 108 10 17 19 15 57 -11z m350 -85 c46
-16 101 -32 122 -36 l37 -7 -32 -39 c-36 -46 -59 -50 -120 -19 -49 25 -85 19
-94 -16 -8 -34 -26 -31 -68 9 -41 39 -44 56 -15 102 26 43 55 44 170 6z m455
-40 c63 -33 105 -90 119 -162 12 -64 -11 -227 -39 -273 -28 -50 -108 -127
-157 -153 -50 -27 -154 -25 -201 4 -95 59 -145 161 -135 274 7 78 66 203 122
258 79 78 199 99 291 52z m-438 -104 c44 -35 51 -48 27 -48 -30 0 -105 44
-105 62 0 28 33 22 78 -14z m-390 -878 c-70 -65 -107 -76 -149 -42 l-22 19 43
39 c24 22 64 45 94 54 28 9 60 21 71 28 17 9 20 8 23 -14 3 -20 -10 -38 -60
-84z"/>
<path d="M2180 1710 c-26 -26 -15 -50 41 -87 34 -22 43 -24 64 -15 40 18 33
56 -17 92 -48 35 -61 37 -88 10z m59 -24 c32 -17 57 -44 48 -52 -18 -18 -104
36 -92 57 8 12 11 12 44 -5z"/>
<path d="M2220 2460 c0 -8 9 -41 19 -74 19 -61 35 -57 24 6 -5 36 -42 95 -43
68z"/>
<path d="M1982 2435 c-14 -31 -15 -35 -4 -35 4 0 16 14 25 30 15 24 15 30 4
30 -8 0 -19 -11 -25 -25z"/>
<path d="M2376 2359 c-36 -42 -44 -59 -28 -59 10 0 75 91 69 97 -3 2 -21 -15
-41 -38z"/>
<path d="M2177 2333 c-14 -14 -23 -15 -67 -5 -60 14 -113 16 -106 4 3 -5 36
-14 74 -22 60 -11 72 -11 100 4 18 9 32 21 32 26 0 15 -14 12 -33 -7z"/>
<path d="M2392 2197 c-12 -13 -25 -38 -29 -57 -6 -31 -5 -34 9 -22 9 7 19 24
22 37 4 14 11 25 16 25 5 0 14 9 20 20 15 29 -10 27 -38 -3z"/>
<path d="M1325 1920 c-7 -12 2 -30 16 -30 5 0 9 9 9 20 0 21 -15 27 -25 10z"/>
<path d="M1567 1873 c-8 -10 -18 -31 -22 -48 l-7 -30 31 33 c30 31 41 62 23
62 -5 0 -16 -8 -25 -17z"/>
<path d="M1540 1711 c0 -6 5 -13 10 -16 6 -3 10 1 10 9 0 9 -4 16 -10 16 -5 0
-10 -4 -10 -9z"/>
<path d="M1574 1443 c10 -121 17 -156 28 -145 6 6 5 48 -3 116 -14 123 -35
148 -25 29z"/>
<path d="M1646 1423 c-9 -57 -7 -113 4 -113 6 0 10 32 10 75 0 41 -2 75 -4 75
-2 0 -6 -17 -10 -37z"/>
<path d="M1996 1316 c-4 -20 -7 -77 -7 -126 -1 -50 -3 -90 -5 -90 -3 0 -22 11
-42 25 -43 29 -103 33 -123 8 -13 -15 -10 -16 38 -10 48 5 53 4 69 -21 10 -15
26 -34 37 -42 11 -9 20 -30 21 -50 2 -34 18 -50 31 -31 11 19 10 350 -2 362
-7 7 -12 0 -17 -25z"/>
<path d="M2138 1208 c-2 -62 -3 -156 -2 -209 l0 -95 79 -74 c44 -41 101 -97
128 -124 44 -47 47 -54 47 -102 l0 -51 -67 -6 -66 -5 -102 107 c-55 58 -131
140 -168 181 -37 41 -94 105 -127 141 -53 59 -60 71 -60 108 0 41 -13 55 -24
25 -3 -9 -6 -31 -6 -51 0 -31 12 -48 94 -134 51 -54 156 -168 232 -253 136
-153 140 -156 179 -155 22 1 63 6 90 12 l50 12 3 69 c3 63 1 71 -21 90 -13 12
-43 44 -66 73 -23 29 -72 76 -108 104 l-65 52 7 157 c7 157 2 240 -16 240 -5
0 -10 -51 -11 -112z"/>
<path d="M1569 1023 c-7 -16 -15 -31 -17 -35 -2 -5 3 -8 11 -8 15 0 47 41 47
60 0 21 -27 9 -41 -17z"/>
</g>
</svg>
