<?xml version="1.0" standalone="no"?>
<!DOCTYPE svg PUBLIC "-//W3C//DTD SVG 20010904//EN"
 "http://www.w3.org/TR/2001/REC-SVG-20010904/DTD/svg10.dtd">
<svg version="1.0" xmlns="http://www.w3.org/2000/svg"
 width="350.000000pt" height="350.000000pt" viewBox="0 0 350.000000 350.000000"
 preserveAspectRatio="xMidYMid meet">

<g transform="translate(0.000000,350.000000) scale(0.100000,-0.100000)"
fill="#000000" stroke="none">
<path d="M2095 3161 c-22 -10 -53 -33 -70 -50 -26 -28 -30 -41 -33 -103 -5
-86 12 -193 38 -235 12 -21 29 -32 53 -37 28 -5 36 -12 39 -34 7 -50 0 -61
-30 -50 -35 14 -79 -12 -134 -78 -61 -74 -79 -116 -72 -164 5 -33 3 -45 -14
-63 -11 -12 -32 -46 -46 -74 -28 -56 -53 -77 -102 -86 -17 -3 -53 -19 -80 -36
-27 -16 -65 -33 -86 -36 l-36 -7 -8 59 c-9 77 -19 102 -57 141 -43 45 -87 62
-161 62 -110 -1 -169 -43 -231 -166 -31 -61 -35 -78 -35 -145 0 -91 16 -134
71 -194 49 -53 109 -78 109 -45 0 4 -13 13 -29 19 -50 21 -107 85 -121 135
-28 102 15 243 98 318 82 74 213 70 281 -8 30 -34 55 -101 49 -132 -4 -18 -7
-18 -108 -7 -54 6 -55 6 -84 -31 -27 -34 -30 -47 -25 -109 1 -11 -3 -33 -9
-50 -24 -68 -31 -162 -15 -207 8 -23 19 -83 24 -132 6 -49 24 -139 40 -200 30
-114 37 -203 19 -237 -13 -23 -53 -44 -101 -53 -32 -6 -42 -2 -79 29 l-42 35
-119 0 c-98 0 -121 -3 -125 -15 -4 -9 -3 -49 1 -90 l7 -75 240 -317 c131 -175
243 -322 248 -326 4 -5 52 -2 106 7 55 9 117 17 139 18 l40 3 8 94 7 93 -45
53 c-25 29 -45 56 -45 59 0 3 29 5 65 3 46 -1 68 2 79 13 21 20 23 106 6 210
-15 92 -15 103 -10 325 3 135 -3 190 -26 267 -6 21 28 33 54 19 11 -6 29 -26
40 -45 11 -19 34 -41 49 -50 16 -8 35 -27 42 -42 21 -47 121 -152 154 -163 18
-6 55 -13 83 -17 44 -5 58 -2 113 26 79 39 138 98 176 175 l30 59 146 26 c80
15 153 29 163 33 29 12 7 29 -27 21 -92 -20 -273 -51 -280 -47 -4 2 -2 13 4
24 6 11 11 57 11 103 1 104 -23 164 -89 222 l-46 42 41 26 c44 27 72 70 72
108 0 13 12 43 26 68 15 25 31 61 36 80 14 52 27 341 17 368 -5 13 -30 49 -55
80 -78 95 -98 145 -95 232 1 41 2 96 3 122 2 85 -51 178 -101 178 -10 0 -2
-11 21 -30 47 -39 62 -85 53 -164 -17 -154 1 -217 95 -346 63 -86 64 -91 51
-216 -6 -61 -11 -130 -11 -153 0 -22 -9 -64 -21 -93 -12 -29 -31 -80 -44 -113
-19 -51 -31 -66 -77 -98 -50 -34 -57 -36 -86 -26 -69 24 -205 -25 -277 -100
-44 -46 -60 -49 -115 -21 -56 29 -79 26 -93 -10 -13 -36 -13 -35 -55 -10 -47
29 -57 63 -34 109 l19 36 140 0 140 0 109 54 c60 30 124 68 142 84 29 28 32
36 32 88 0 32 5 70 10 84 6 15 11 61 12 103 3 67 0 81 -21 110 -13 18 -25 31
-28 29 -2 -3 5 -31 17 -64 l20 -59 -20 -79 c-11 -43 -18 -87 -14 -97 11 -37
-7 -78 -46 -104 -45 -30 -54 -27 -70 21 -7 22 -23 41 -40 50 -35 18 -46 19
-32 3 14 -18 62 -109 62 -119 0 -9 -73 -49 -89 -49 -5 0 -18 16 -30 35 -18 31
-20 45 -14 130 4 63 3 95 -4 95 -6 0 -13 -10 -16 -22 -7 -35 -2 -210 7 -238 7
-25 7 -24 -17 4 -14 16 -28 46 -31 67 -8 51 4 177 19 209 7 14 16 44 20 67 6
36 4 43 -14 53 -35 18 -26 58 29 135 27 39 56 80 65 93 17 24 54 29 73 10 9
-9 17 -9 37 2 30 16 92 2 86 -21 -2 -8 -6 -26 -9 -41 -6 -41 16 -34 24 6 8 48
37 71 88 71 22 0 43 5 46 10 7 14 -62 18 -103 7 -52 -15 -99 5 -111 47 -7 25
-7 36 2 39 30 10 77 50 93 81 19 36 14 70 -5 36 -6 -11 -27 -37 -47 -57 -62
-65 -134 -45 -159 43 -18 61 -15 183 6 225 21 43 76 79 136 89 21 4 38 11 38
16 0 16 -73 9 -115 -10z m-183 -844 c-3 -12 -14 -36 -24 -52 -12 -22 -18 -56
-20 -122 l-3 -92 -35 -17 c-26 -13 -64 -18 -145 -19 -60 -1 -125 -5 -143 -9
-24 -6 -40 -3 -66 13 -18 12 -39 21 -46 21 -22 0 -39 -33 -33 -64 4 -18 2 -27
-4 -25 -13 5 -88 73 -98 89 -10 17 63 90 91 90 12 0 52 -11 89 -25 66 -25 68
-25 119 -9 28 9 67 27 86 40 20 13 50 27 68 30 28 6 32 4 32 -15 0 -11 4 -21
9 -21 11 0 21 25 21 52 0 19 33 83 73 141 21 31 38 28 29 -6z m-27 -323 c0
-14 -6 -18 -24 -16 -35 4 -39 11 -16 28 24 18 40 13 40 -12z m-382 -21 c34
-20 72 -43 85 -50 25 -15 28 -28 9 -36 -32 -12 -187 88 -173 111 10 17 11 16
79 -25z m349 -11 c15 -15 12 -15 -89 -12 -39 1 -88 -4 -107 -11 -31 -11 -38
-11 -57 7 l-21 19 24 7 c39 12 236 4 250 -10z m-510 -12 c10 -15 24 -20 57
-20 40 0 121 -34 121 -50 0 -4 -9 -15 -21 -26 -12 -10 -30 -37 -42 -59 -18
-37 -19 -52 -14 -200 6 -149 34 -363 57 -429 13 -38 13 -172 0 -197 -13 -23
-82 -26 -132 -5 -18 7 -65 23 -105 35 -40 12 -75 26 -79 32 -3 5 -24 21 -46
35 -22 14 -37 28 -34 32 4 3 46 7 94 8 76 1 94 5 130 28 54 34 59 58 37 165
-28 137 -44 230 -54 317 -5 45 -19 102 -30 127 -18 39 -19 54 -12 121 9 77 22
106 47 106 8 0 19 -9 26 -20z m947 -90 c42 -21 72 -52 97 -100 15 -28 18 -55
17 -139 -3 -133 -20 -185 -85 -256 -116 -127 -234 -148 -342 -61 -74 59 -101
119 -101 221 0 72 4 88 38 160 72 150 161 212 291 199 27 -3 65 -13 85 -24z
m-687 -27 c8 -10 19 -29 25 -43 14 -35 106 -84 142 -77 18 4 39 -1 61 -14 31
-19 32 -22 25 -62 -4 -23 -8 -58 -10 -77 -1 -19 -6 -35 -11 -35 -5 0 -31 12
-59 26 -60 30 -133 54 -141 46 -3 -3 -1 -20 5 -39 48 -147 59 -264 41 -418 -6
-53 -4 -108 7 -195 23 -176 23 -187 -7 -203 -25 -13 -47 -12 -195 6 -40 5 -74
17 -103 36 -54 36 -64 29 -17 -13 26 -22 46 -31 71 -31 52 0 90 -24 121 -78
15 -26 38 -62 50 -81 23 -34 28 -65 17 -118 l-6 -30 -111 -15 c-66 -9 -119
-12 -129 -7 -9 5 -59 64 -111 131 -52 68 -158 201 -236 297 l-141 173 0 73 0
72 61 7 c96 10 133 7 158 -10 l23 -17 -31 -13 c-39 -16 -43 -57 -8 -75 12 -7
38 -25 57 -40 19 -16 49 -31 66 -35 25 -5 30 -10 27 -29 -6 -27 30 -100 53
-109 28 -11 29 3 2 32 -32 35 -40 58 -24 71 10 8 21 8 42 0 16 -6 64 -12 106
-13 68 -1 80 2 100 21 33 33 37 133 9 244 -11 46 -23 118 -27 159 -3 41 -13
104 -21 140 -8 36 -16 108 -18 160 -4 109 8 147 58 179 39 25 60 26 79 4z
m246 -75 c65 -52 48 -65 -33 -26 -42 21 -54 36 -38 51 13 13 31 7 71 -25z"/>
<path d="M1325 1780 c-7 -12 2 -30 16 -30 5 0 9 9 9 20 0 21 -15 27 -25 10z"/>
<path d="M2132 1598 c-23 -23 -13 -55 27 -87 70 -56 128 -64 152 -20 9 18 6
26 -17 50 -29 30 -103 69 -132 69 -10 0 -23 -5 -30 -12z m96 -40 c40 -22 62
-52 47 -66 -10 -11 -120 53 -123 71 -5 24 24 22 76 -5z"/>
<path d="M1563 1748 c-6 -7 -13 -30 -17 -50 -6 -31 -4 -37 8 -32 18 7 49 71
41 84 -8 14 -21 13 -32 -2z"/>
<path d="M1540 1565 c0 -8 5 -15 10 -15 6 0 10 7 10 15 0 8 -4 15 -10 15 -5 0
-10 -7 -10 -15z"/>
<path d="M1986 2438 c-27 -38 -18 -54 9 -18 28 38 29 40 16 40 -6 0 -17 -10
-25 -22z"/>
<path d="M2391 2381 c-30 -30 -54 -71 -47 -78 7 -7 85 75 86 90 0 13 -20 7
-39 -12z"/>
<path d="M2173 2333 c-19 -13 -30 -14 -67 -4 -56 14 -106 14 -106 1 0 -5 9
-10 20 -10 11 0 39 -5 63 -12 50 -13 84 -7 118 22 29 24 5 27 -28 3z"/>
<path d="M2391 2196 c-23 -24 -43 -105 -23 -92 6 3 16 22 22 41 6 19 16 35 20
35 5 0 14 9 20 20 15 29 -10 27 -39 -4z"/>
<path d="M2292 2021 c-23 -4 -50 -15 -60 -25 -16 -16 -14 -17 38 -10 59 7 90
19 90 34 0 11 -4 11 -68 1z"/>
<path d="M1897 1854 c-8 -8 3 -34 14 -34 5 0 9 9 9 20 0 19 -11 26 -23 14z"/>
<path d="M1989 1198 c-1 -7 -1 -32 1 -55 1 -24 -1 -43 -4 -43 -3 0 -22 11 -43
25 -41 29 -113 32 -121 6 -4 -11 5 -12 40 -7 42 6 47 5 63 -21 10 -15 27 -34
37 -41 13 -9 18 -26 18 -58 0 -47 23 -63 35 -24 9 27 9 205 1 219 -10 15 -26
14 -27 -1z"/>
<path d="M2143 1173 c-4 -10 -7 -74 -8 -143 l0 -125 90 -85 c158 -150 165
-158 165 -213 0 -53 1 -53 -85 -61 l-61 -7 -29 40 c-34 46 -240 271 -345 376
-67 67 -70 72 -70 118 0 46 -12 62 -24 31 -3 -9 -6 -32 -6 -52 0 -31 10 -46
73 -111 40 -42 146 -156 236 -253 90 -97 169 -179 175 -181 10 -4 126 17 153
28 9 3 13 27 13 73 0 62 -3 71 -27 94 -16 14 -45 46 -67 72 -21 26 -67 70
-103 99 l-66 51 7 127 c5 86 4 129 -3 134 -6 3 -14 -2 -18 -12z"/>
</g>
</svg>
