<?xml version="1.0" encoding="UTF-8" standalone="no"?>
<!-- Created with Inkscape (http://www.inkscape.org/) -->

<svg
   xmlns:dc="http://purl.org/dc/elements/1.1/"
   xmlns:cc="http://creativecommons.org/ns#"
   xmlns:rdf="http://www.w3.org/1999/02/22-rdf-syntax-ns#"
   xmlns:svg="http://www.w3.org/2000/svg"
   xmlns="http://www.w3.org/2000/svg"
   xmlns:sodipodi="http://sodipodi.sourceforge.net/DTD/sodipodi-0.dtd"
   xmlns:inkscape="http://www.inkscape.org/namespaces/inkscape"
   width="46.049866mm"
   height="79.262474mm"
   viewBox="0 0 163.16882 280.85128"
   id="svg2"
   version="1.1"
   inkscape:version="0.91 r13725"
   sodipodi:docname="1435345.svg">
  <defs
     id="defs4" />
  <sodipodi:namedview
     id="base"
     pagecolor="#ffffff"
     bordercolor="#666666"
     borderopacity="1.0"
     inkscape:pageopacity="0.0"
     inkscape:pageshadow="2"
     inkscape:zoom="1.979899"
     inkscape:cx="117.39331"
     inkscape:cy="229.08597"
     inkscape:document-units="px"
     inkscape:current-layer="layer1"
     showgrid="false"
     inkscape:window-width="1272"
     inkscape:window-height="1024"
     inkscape:window-x="1280"
     inkscape:window-y="0"
     inkscape:window-maximized="0"
     fit-margin-top="0"
     fit-margin-left="0"
     fit-margin-right="0"
     fit-margin-bottom="0" />
  <metadata
     id="metadata7">
    <rdf:RDF>
      <cc:Work
         rdf:about="">
        <dc:format>image/svg+xml</dc:format>
        <dc:type
           rdf:resource="http://purl.org/dc/dcmitype/StillImage" />
        <dc:title></dc:title>
      </cc:Work>
    </rdf:RDF>
  </metadata>
  <g
     inkscape:label="Layer 1"
     inkscape:groupmode="layer"
     id="layer1"
     transform="translate(-191.35788,-394.53213)">
    <path
       style="fill:#000000"
       d="m 238.35784,669.85777 -18.5,-5.26474 -0.28753,-9.15094 c -0.28163,-8.96332 -0.24062,-9.14997 2,-9.10302 3.9534,0.0828 123.45026,28.81263 120.13868,28.8841 -1.73187,0.0374 -28.93975,-6.00703 -60.46197,-13.43203 -31.52222,-7.425 -57.89273,-13.5 -58.60115,-13.5 -0.93512,0 -1.28803,2.03549 -1.28803,7.42904 l 0,7.42904 5.25,1.50652 c 2.8875,0.82858 12,3.38307 20.25,5.67663 8.25,2.29357 15.1875,4.34757 15.41667,4.56444 1.58499,1.50001 -8.1353,-0.54797 -23.91667,-5.03904 z m 32.5,-26.68724 c 12.1,-3.86452 25.375,-8.05387 29.5,-9.30967 6.14413,-1.87051 7.55998,-2.68762 7.83178,-4.51985 0.2859,-1.92725 0.009,-2.13769 -2,-1.52165 -1.28248,0.3932 -16.32927,5.1602 -33.43731,10.59334 -17.10804,5.43314 -31.71053,9.87844 -32.45,9.87844 -3.8631,0 3.48121,-2.6588 33.4732,-12.11803 l 32.91767,-10.38197 -6.31475,-0.85685 c -6.23575,-0.84612 -6.35109,-0.81797 -9.21836,2.25 -2.75969,2.95287 -3.2852,3.10739 -10.60292,3.11767 -9.87254,0.0139 -16.80473,2.0989 -20.13261,6.05536 -2.92533,3.47789 -7.5917,4.87396 -16.41146,4.90996 -3.21462,0.0131 -8.94219,0.96467 -12.72792,2.11455 -3.78574,1.14989 -7.45559,1.8987 -8.15524,1.66404 -0.69964,-0.23466 1.65292,-1.35298 5.22792,-2.48516 l 6.5,-2.0585 -5.55887,-0.10553 c -8.95464,-0.17001 -9.4239,-0.89673 -9.54068,-14.77502 -0.0547,-6.50678 -1.26401,-16.9894 -2.22424,-22.2144 -2.10183,-11.43686 2.70764,-23.70368 6.27593,-32.40299 3.16124,-7.70697 0.95495,-12.54561 0.71233,-23.46313 -0.10084,-4.5375 0.35878,-13.04822 0.86704,-13.04822 1.12847,0 0.0446,18.76924 0.0446,18.76924 0.0496,0.98058 1.46076,7.69418 0.94125,11.35726 -0.51952,3.66308 -3.02073,9.84055 -4.47794,13.11041 -3.44749,7.73583 -4.97257,19.67396 -2.91607,29.61814 0.89049,4.30598 2.37669,5.53582 2.37669,8.44315 0,3.77621 0.42844,5.45045 1.5,5.86165 0.825,0.31658 1.5,1.32761 1.5,2.24674 0,0.91913 0.78679,2.24646 1.74843,2.94963 2.71774,1.98726 0.74824,2.81354 -2.16167,0.90689 l -2.58676,-1.69491 0,5.07647 c 0,5.02224 0.0401,5.08711 3.75,6.07338 2.0625,0.5483 5.325,0.94233 7.25,0.87561 1.925,-0.0667 7.15632,0.005 11.62516,0.16038 7.09803,0.24608 15.37484,-1.15312 15.37484,-2.59911 0,-0.26851 -0.46583,-1.35861 -1.03518,-2.42245 -0.76264,-1.425 -2.10466,-1.93426 -5.09723,-1.93426 -3.65677,0 -4.76054,-0.67347 -11.06289,-6.75 -10.81214,-10.42475 -12.4263,-15.26006 -8.90262,-26.66841 1.22027,-3.95077 2.10674,-9.572 2.11901,-13.43693 0.0198,-6.22629 1.30613,-11.05632 6.08752,-22.8573 4.23455,-14.99701 0.93138,-5.72483 3.77836,-12.98513 1.63439,-4.37031 2.06713,-7.03 1.57264,-9.66581 -0.66647,-3.55262 -0.78909,-3.63743 -5.3209,-3.68031 -2.55129,-0.0241 -6.43871,-0.7108 -8.63871,-1.52591 -8.66407,-1.92178 -8.37266,9.53731 -7.68241,-16.08937 0.70019,-1.3083 0.89229,-5.13508 0.52472,-10.45239 -0.57935,-8.38077 0.76596,-16.88844 2.67055,-16.88844 3.46687,0 5.33194,-15.13653 2.64195,-21.44151 l -1.25498,-2.9415 -2.15818,3.49202 c -1.187,1.9206 -4.26987,5.00851 -6.85081,6.862 -4.40743,3.16518 -4.85058,3.28168 -7.29173,1.91698 -3.21978,-1.79998 -10.63121,-15.31064 -12.63465,-23.03233 -2.19866,-8.4741 -1.57084,-13.8651 0.9496,-1.35566 1.78671,8.86779 8.64578,20.3505 11.45657,22.88775 2.07078,1.86925 2.14536,1.84154 7.61032,-2.82732 3.03548,-2.59329 5.51905,-5.28756 5.51905,-5.98727 0,-0.69971 1.32293,-3.24199 2.93984,-5.64951 1.61691,-2.40752 2.81495,-4.50219 2.66233,-4.65482 -0.15263,-0.15262 -1.50947,0.999 -3.41759,1.28898 -2.35515,0.35791 1.07063,-1.40467 3.15234,-2.10577 2.14111,-0.7211 1.15776,-1.47469 2.99678,-4.92463 1.27201,-2.38625 1.82627,-2.0058 1.14585,-0.0274 -0.37831,1.1 -1.05548,3.22325 -1.50481,4.71833 -0.44933,1.49508 -1.46391,3.64198 -2.25463,4.77089 -1.26472,1.80563 -1.21406,2.73039 0.42111,7.6869 1.02233,3.09888 1.85878,7.96974 1.85878,10.82412 0,3.68095 0.50878,5.6439 1.75,6.75175 2.85088,2.54454 10.17745,4.01455 16.46389,3.30332 6.50547,-0.73601 15.76052,-3.27466 15.83693,-4.34405 0.39876,-5.58128 1.44467,-10.18685 2.77313,-12.21126 1.10729,-1.68736 1.65938,-4.7754 1.69845,-9.5 0.0356,-4.31106 0.7147,-8.48742 1.76774,-10.87212 2.63854,-5.9752 2.20491,-9.07415 -1.9065,-13.625 -1.989,-2.20158 -3.14666,-4.00288 -2.57258,-4.00288 0.57408,0 1.97644,1.18569 3.11636,2.63486 1.87962,2.38955 2.07258,2.44642 2.07258,0.61078 0,-1.11324 -0.7875,-2.97094 -1.75,-4.12821 -1.64599,-1.97909 -1.98774,-2.01941 -5.75,-0.6785 -2.2,0.78411 -5.08649,1.16376 -6.41443,0.84368 -1.95214,-0.47054 -2.29297,-0.26547 -1.7801,1.07104 0.56655,1.47641 0.39717,1.50305 -1.58558,0.24929 -1.22094,-0.77205 -5.38253,-1.6298 -9.24797,-1.90612 -4.73641,-0.33858 -8.24695,-1.22155 -10.7661,-2.70788 -4.50754,-2.65952 -9.80243,-2.09597 -12.22349,1.30098 -1.45871,2.04668 -1.64934,2.0807 -2.57844,0.46008 -1.45236,-2.53335 -3.76611,-2.14714 -4.49325,0.75 -0.3451,1.375 -0.99835,2.5 -1.45166,2.5 -0.45331,0 -1.10952,0.89895 -1.45824,1.99768 -0.34872,1.09872 -1.72905,2.2725 -3.06739,2.6084 -2.81333,0.7061 -3.09958,2.86364 -1.03538,7.80396 2.00405,4.79637 5.59172,4.65055 7.3245,0.87519 0.83059,-1.80967 1.94241,-3.96531 2.47071,-4.79031 0.52829,-0.825 1.1928,-2.625 1.47667,-4 0.28387,-1.375 1.24741,-3.4 2.1412,-4.5 1.62506,-2 1.62506,-2 0.89104,0 -0.40371,1.1 -0.94427,3.50189 -1.20126,5.33754 l -0.46724,3.33754 2.86962,-1.4671 c 3.09368,-0.98366 3.17427,-1.09385 1.86963,1.24463 -7.15026,2.80325 -8.42098,3.70934 -9.61821,6.8583 -0.74777,1.96679 -2.64577,3.5097 -0.16866,6.33097 5.13179,5.84479 3.32092,4.99066 -2.86598,-1.35178 -5.74476,-5.88919 -8.87086,-11.88591 -7.73678,-14.84127 0.31105,-0.81057 1.70207,-1.90587 3.09116,-2.43401 1.78039,-0.6769 2.52563,-1.70522 2.52563,-3.48499 0,-1.48295 0.57083,-2.52475 1.38337,-2.52475 1.62184,0 2.58385,-3.02414 2.60298,-8.18261 0.0152,-4.09191 1.55349,-5.10332 7.28652,-4.79072 6.75861,0.36852 8.72713,6.9e-4 8.72713,-1.63075 0,-1.40026 -1.0483,-1.51324 -8.25,-0.88918 -4.5375,0.3932 -8.8125,1.17013 -9.5,1.72653 -0.69088,0.55912 -1.25,3.19333 -1.25,5.88917 0,5.31495 -1.47726,6.37767 -4,2.87756 -1.62196,-2.25035 -4.22288,-2.51547 -8.85078,-0.90218 -3.39035,1.18189 -3.95791,2.33041 -1.78021,3.60249 2.55154,1.49045 2.93151,5.09506 0.68499,6.49804 -1.1297,0.70551 -2.10187,2.412 -2.16038,3.7922 l 2.54527,16.02024 -3.73831,-16.26079 c -0.44264,-1.92538 -1.81677,-2.75 -3.28663,-2.75 -2.11651,0 -3.41395,-1.70409 -3.41395,-4.48396 0,-0.72622 1.35,-1.791 3,-2.36619 1.65,-0.5752 3,-1.72839 3,-2.56265 0,-0.83426 0.87042,-1.98267 1.93426,-2.55202 2.47429,-1.3242 11.75303,-1.35018 12.56574,-0.0352 1.37186,2.21972 2.63533,0.89263 1.98203,-2.08184 -0.53188,-2.42159 -0.1902,-3.5999 1.59485,-5.5 1.89334,-2.01536 3.23231,-2.41816 8.03842,-2.41816 3.21024,0 6.07646,-0.50127 6.4655,-1.13073 0.47337,-0.76593 3.52579,-0.96955 9.4611,-0.63114 l 8.76227,0.49961 -0.15209,-7.33112 c -0.12008,-5.78864 0.21612,-7.69975 1.59792,-9.08316 0.97909,-0.98023 1.75,-1.24311 1.75,-0.59676 0,0.6354 -0.45,1.43338 -1,1.7733 -0.55,0.33992 -1,3.92808 -1,7.9737 l 0,7.35566 7.25,0.66996 c 3.9875,0.36848 9.05,0.51937 11.25,0.33532 l 4,-0.33464 -0.31124,-7.43017 c -0.17118,-4.08659 -0.71649,-8.18738 -1.21178,-9.11285 -1.65059,-3.08415 -6.57405,-4.36443 -12.59032,-3.27394 -3.03285,0.54973 -5.06195,0.59225 -4.56539,0.0957 1.8432,-1.84319 11.65959,-2.09854 14.96495,-0.38928 4.26026,2.20307 5.46945,4.84821 5.60187,12.25418 l 0.11191,6.25905 5,0.56014 c 2.75,0.30808 12.65,1.02249 22,1.58758 9.35,0.56509 21.95,1.46369 28,1.99688 6.05,0.5332 14.2625,1.25672 18.25,1.60782 6.7975,0.59853 7.25,0.7874 7.25,3.02608 0,2.28793 -0.21939,2.36329 -5.25,1.80349 -2.8875,-0.32132 -6.6,-0.78362 -8.25,-1.02734 -1.65,-0.24372 -18.75,-1.57641 -38,-2.96154 -19.25,-1.38512 -39.43518,-2.96332 -44.85596,-3.5071 -5.42077,-0.54378 -12.67087,-0.98869 -16.11132,-0.98869 -6.13318,0 -6.24604,0.0488 -5.77747,2.5 0.42782,2.238 0.96349,2.50011 5.11133,2.50105 3.83275,8.8e-4 26.03671,1.56279 49.63342,3.49141 2.75,0.22476 11.50327,0.88156 19.45172,1.45955 18.07774,1.31457 43.27106,3.93744 43.90451,4.57088 1.24459,1.2446 -1.15961,1.38461 -8.4332,0.49111 -8.1994,-1.00723 -44.22719,-4.014 -48.09666,-4.014 -1.64956,0 -2.27199,0.68196 -2.50995,2.75 -0.2764,2.40219 -0.80327,2.79 -4.16572,3.06628 -3.26361,0.26817 -3.77129,0.61456 -3.33665,2.27664 0.28195,1.0782 0.16039,7.01087 -0.27013,13.18372 -0.62397,8.94636 -1.24362,11.99864 -3.05425,15.04476 -1.24931,2.10177 -2.55523,5.20882 -2.90205,6.90456 -0.82,4.00938 -3.37518,5.70006 -6.0706,4.01674 -1.09443,-0.68348 -2.17697,-1.2427 -2.40563,-1.2427 -0.78054,0 -2.61139,6.29232 -2.61139,8.97491 0,4.45598 -3.79647,7.01991 -12.13467,8.1951 -9.76816,1.37673 -19.53052,0.45364 -23.09822,-2.18407 -1.71637,-1.26897 -2.76711,-1.58426 -2.76711,-0.83033 0,0.66852 -0.94863,2.22525 -2.10805,3.45941 -1.51527,1.61293 -2.3296,4.2621 -2.8959,9.42092 -0.82733,7.53684 -0.7925,8.31393 0.50824,11.34004 0.45072,1.04858 0.33227,3.25383 -0.26858,5 -0.59123,1.71821 -1.85944,4.9484 -1.71889,7.22992 0.52155,8.46631 -0.11559,5.75168 3.04844,7.17835 8.02722,3.6195 9.57927,2.47413 14.90286,1.84844 l 5.40658,-0.63544 -0.55405,3.41425 c -0.35051,2.15995 0.0459,4.61691 1.07905,6.6879 0.89821,1.8005 2.11041,7.55412 2.69378,12.78583 0.58337,5.2317 1.70099,10.75042 2.4836,12.26382 -2.40054,5.87936 -0.77053,0.71707 -2.74546,9.57526 -2.20729,9.99611 -2.18466,12.58645 0.16838,19.27569 1.06409,3.025 1.9494,7.375 1.96735,9.66667 0.018,2.29166 0.50716,4.32483 1.08711,4.51815 0.57995,0.19332 1.15891,1.06324 1.28659,1.93317 0.12768,0.86992 1.00318,2.75842 1.94555,4.19666 1.9393,2.95976 2.10034,3.68535 0.8179,3.68535 -0.49252,0 -1.78424,-1.79631 -2.87048,-3.99181 l -1.97499,-3.99181 -0.61851,3.74181 c -1.09177,6.60489 -0.72287,9.85731 1.32861,11.71387 1.80355,1.63219 2.65019,1.6761 10.06822,0.52213 4.4545,-0.69295 10.44193,-1.01811 13.30541,-0.72257 5.97468,0.61664 11.65724,-1.25373 11.65724,-3.83689 0,-1.37812 0.72554,-1.56419 4.25,-1.08994 2.3375,0.31454 16.4,1.56356 31.25,2.7756 14.85,1.21205 27.4275,2.5808 27.95,3.04167 1.30831,1.15398 -1.41905,1.06453 -19.95,-0.65429 -8.8,-0.81624 -17.94641,-1.48941 -20.32537,-1.49592 -4.26024,-0.0117 -4.32046,0.0358 -4,3.15404 0.30333,2.95145 0.0206,3.26951 -4.17463,4.69556 l -4.5,1.52967 4,0.68936 c 2.2,0.37914 13.9,1.70281 26,2.94148 12.1,1.23867 22.4275,2.64045 22.95,3.11508 1.40576,1.27696 -0.36992,1.152 -30.62627,-2.15533 l -27.61216,-3.01829 -20.69146,6.51829 c -11.3803,3.58506 -21.89041,6.49709 -23.35579,6.47117 -1.46537,-0.0259 7.23568,-3.20898 19.33568,-7.07349 z m -17.87139,-15.73728 c -1.44663,-1.5985 -1.59469,-3.3786 -1.06049,-12.75 0.53568,-9.39724 0.33521,-11.78419 -1.46071,-17.39211 -2.48609,-7.76302 -2.59068,-10.95209 -0.61244,-18.67391 1.20329,-4.6969 1.32597,-8.42709 0.62875,-19.11868 -0.47642,-7.30578 -1.08881,-13.50584 -1.36087,-13.77789 -0.53356,-0.53356 -3.86976,8.56249 -5.52748,15.07048 -0.56038,2.2 -2.02493,6.475 -3.25455,9.5 -1.32133,3.2506 -2.58594,9.29967 -3.09211,14.79058 -0.47104,5.10982 -1.57545,11.76391 -2.45424,14.78685 -2.63522,9.06482 -0.44689,16.13584 6.38891,20.64413 1.47214,0.97089 2.22662,1.77492 1.67662,1.78673 -2.15012,0.0462 7.14472,6.91888 9.40499,6.95416 2.28072,0.0356 2.31811,-0.0584 0.72362,-1.82034 z m 26.17769,-155.72498 c 0.16847,-1.05442 1.59441,-4.61713 3.16876,-7.91713 2.49686,-5.23366 2.94029,-7.5646 3.47183,-18.25 l 0.60938,-12.25 -4.96526,0 -4.96527,0 0.56797,3.5 c 0.34713,2.1391 0.15955,3.5 -0.48242,3.5 -0.65635,0 -0.49066,1.42497 0.44167,3.79843 1.37164,3.49186 1.33243,4.21856 -0.48574,9.00361 -1.59998,4.2108 -1.77907,5.8527 -0.93749,8.59484 0.74085,2.41391 0.71371,4.32661 -0.0943,6.64444 -0.85016,2.43876 -0.84638,3.60205 0.0151,4.64002 1.4861,1.79064 3.26607,1.17511 3.6558,-1.26421 z m -77.93276,-35.99082 c 1.27044,-1.15657 -1.23568,-3.42631 -3.78314,-3.42631 -3.2781,0 -4.57954,1.28294 -3.67984,3.62752 0.44385,1.15664 1.38388,1.3612 3.83861,0.8353 1.78796,-0.38305 3.41892,-0.84948 3.62437,-1.03651 z m 66.1922,-4.46149 c 2.6527,-1.41968 2.45995,-4.81445 -0.33366,-5.87658 -2.6304,-1.00008 -29.50968,-3.08824 -39.7525,-3.08824 l -6.97958,0 0,3.5 c 0,3.3219 0.1751,3.5 3.44098,3.5 1.89254,0 3.7191,-0.45 4.05902,-1 0.94172,-1.52373 7.27702,-1.19221 9.88612,0.51734 4.30753,2.82241 25.68512,4.58527 29.67962,2.44748 z m -11.06574,-2.46482 c 0,-0.825 0.45,-1.5 1,-1.5 0.55,0 1,0.675 1,1.5 0,0.825 -0.45,1.5 -1,1.5 -0.55,0 -1,-0.675 -1,-1.5 z m 37.42579,0.83278 c 0.35188,-0.91697 0.28752,-1.98845 -0.14301,-2.38107 -0.43053,-0.39263 -5.84528,-0.93827 -12.03278,-1.21255 -11.23498,-0.49802 -11.25,-0.4956 -11.25,1.81465 0,2.73919 1.44617,3.07625 14.14301,3.29636 7.23392,0.1254 8.74732,-0.12198 9.28278,-1.51739 z m 29.84324,-9.98872 c -0.67703,-0.27392 -2.02703,-0.29059 -3,-0.0371 -0.97297,0.25355 -0.41903,0.47767 1.23097,0.49804 1.65,0.0204 2.44606,-0.18706 1.76903,-0.46098 z m -22.76903,-1.40143 c -2.2,-0.45505 -6.25,-0.77766 -9,-0.71689 l -5,0.11047 6,0.66379 c 3.3,0.36508 7.35,0.68768 9,0.71689 2.43655,0.0431 2.24874,-0.10228 -1,-0.77426 z m -17.7723,-1.67243 c -2.07477,-0.21647 -5.22477,-0.21284 -7,0.008 -1.77524,0.22091 -0.0777,0.39803 3.7723,0.39359 3.85,-0.004 5.30246,-0.18518 3.2277,-0.40165 z m 3.7723,203.53323 c -6.17092,-2.02365 -13.12854,-5.94208 -17.08914,-9.62435 l -4.08914,-3.80177 0.21742,-19.93865 c 0.17394,-15.95131 0.54925,-20.731 1.87673,-23.90075 0.91262,-2.17915 1.61236,-6.00415 1.55499,-8.5 -0.15999,-6.95906 3.03293,-22.60542 3.99772,-20.42633 0.43679,0.98652 -1.06546,9.14363 -1.48633,11.18211 -0.42091,2.03847 -0.83396,6.63131 -0.91788,10.20631 -0.0909,3.8727 -0.82486,7.76023 -1.8158,9.61783 -1.39354,2.61234 -1.56662,5.04428 -1.06754,15 0.36856,7.35198 0.16764,13.87468 -0.52699,17.1083 -0.73682,3.43005 -0.7958,6.08581 -0.1716,7.72757 1.36034,3.57797 12.3079,11.28411 18.64954,13.12768 2.96657,0.86241 5.13642,1.9844 4.8219,2.49331 -0.31453,0.50892 -0.65782,0.87744 -0.76286,0.81893 -0.10504,-0.0585 -1.54098,-0.54909 -3.19098,-1.09019 z M 230.8808,568.36924 c -1.3102,-2.44813 -1.83321,-3.0781 -0.63954,-3.0781 0.8551,0 2.27739,5.15751 1.6093,5.83565 -0.18188,0.1846 -0.3752,-1.6466 -0.96976,-2.75755 z m 28.94509,-3.17876 c -0.3667,-1.15537 -0.17202,-2.59537 0.43261,-3.2 0.79912,-0.79912 1.09934,-0.65742 1.09934,0.51887 0,0.89002 0.27314,2.33002 0.60699,3.2 0.33384,0.86999 0.13917,1.58179 -0.43261,1.58179 -0.57178,0 -1.33963,-0.9453 -1.70633,-2.10066 z m -27.01351,-4.35389 c -2.52684,-2.52684 -3.18842,-4.54545 -1.48972,-4.54545 0.53064,0 1.00454,1.40508 1.59324,2.50508 0.71553,1.33698 1.46247,2.3788 3.52628,2.3788 2.63085,0 3.97651,-0.66212 2.91566,0.61612 -1.77962,2.14431 -3.7312,1.85971 -6.54546,-0.95455 z m 27.70598,-4.0925 c -1.92166,-4.21757 -1.55629,-3.75085 1.05594,-0.56399 2.81168,3.43017 3.34749,3.11104 1.44406,3.11104 -0.73672,0 -1.86172,-1.14617 -2.5,-2.54705 z m -28.66052,-6.25308 c 0.55,-0.58209 0.77164,-0.61568 2.42164,-1.00061 5.45295,-0.24761 -4.10034,2.85189 -2.42164,1.00061 z m 40.5,-17.24784 c 0,-2.61015 -0.30725,-3.04546 -1.75,-2.47939 -5.7206,2.24448 -17.25,2.39516 -17.25,0.22545 0,-0.19328 2.88099,-0.39511 6.40221,-0.4485 8.75059,-0.1327 12.59779,-2.1819 12.59779,-6.71017 0,-1.87507 -0.42861,-4.53656 -0.95247,-5.91441 -0.52386,-1.37785 -1.21344,-5.2987 -1.5324,-8.71301 -0.31895,-3.4143 -0.81852,-6.59388 -1.11015,-7.06574 -0.29162,-0.47185 0.0303,-2.40806 0.71542,-4.30269 0.92174,-2.54901 0.96231,-4.06664 0.15601,-5.83626 -0.5993,-1.31532 -0.75853,-2.92722 -0.35385,-3.58202 1.3544,-2.19146 3.45482,6.3534 2.3446,9.53819 -0.59982,1.72062 -0.6427,3.7923 -0.10841,5.23663 0.48622,1.31436 0.62899,3.1933 0.31728,4.17542 -0.31171,0.98212 0.12866,4.46936 0.97861,7.74942 1.73362,6.69026 2.07753,19.72812 0.54536,20.67505 -0.58624,0.36231 -1,-0.69195 -1,-2.54797 z m -12,-53.32586 c 1.27523,-4.93993 4.205,-9.35526 4.35391,-13.76236 2.16406,-10.94643 3.7141,-6.41681 6.61853,-0.36381 l -2.33565,-2.82759 -2.33566,-2.82759 c -0.53081,7.1958 -5.92069,28.35691 -6.30113,19.78135 z m -11.96673,-5.68834 c -0.1108,-1.87217 4.34877,-9.06649 6.22528,-10.04283 1.2328,-0.64142 3.0742,-2.03495 4.092,-3.09673 1.0178,-1.06177 2.07555,-1.7055 2.35055,-1.4305 0.83098,0.83098 -3.04463,4.43214 -5.96478,5.54238 -1.66628,0.63352 -2.73632,1.7888 -2.73632,2.95431 0,1.65409 -3.87698,7.59003 -3.96673,6.07337 z m -3.83264,-22.75164 c -1.28141,-2.25902 -5.15068,-4.56948 -4.89447,-4.82569 6.27821,2.67844 6.51059,4.6342 13.43346,5.04568 15.73424,-4.20904 -0.85018,3.99814 -8.53899,-0.21999 z"
       id="path3347"
       inkscape:connector-curvature="0"
       sodipodi:nodetypes="scsccssscsscscsscssscsssssssscssssssssssssssscssccssssssccscccssscssssssssscsssssssssssscssssssssssssssssssssssssscccssssssssssscsssssscsssssssssscscssssscsscsssssscsssssssssssssssssssssssssssssssssssscsssccscssssscsssssssssssscsssscscsccssscssssscscccscccssssssccccssscssscsssssscsssccsssccscccsccscsccccccscsssscssssssscccsscsssscssssssssssssscccssssssssssssssssscccccccsssssccccc" />
  </g>
</svg>
