<?xml version="1.0" encoding="UTF-8" standalone="no"?>
<!-- Created with Inkscape (http://www.inkscape.org/) -->

<svg
   xmlns:dc="http://purl.org/dc/elements/1.1/"
   xmlns:cc="http://creativecommons.org/ns#"
   xmlns:rdf="http://www.w3.org/1999/02/22-rdf-syntax-ns#"
   xmlns:svg="http://www.w3.org/2000/svg"
   xmlns="http://www.w3.org/2000/svg"
   xmlns:sodipodi="http://sodipodi.sourceforge.net/DTD/sodipodi-0.dtd"
   xmlns:inkscape="http://www.inkscape.org/namespaces/inkscape"
   width="42.853504mm"
   height="79.849121mm"
   viewBox="0 0 151.84313 282.92996"
   id="svg2"
   version="1.1"
   inkscape:version="0.91 r13725"
   sodipodi:docname="23345354.svg">
  <defs
     id="defs4" />
  <sodipodi:namedview
     id="base"
     pagecolor="#ffffff"
     bordercolor="#666666"
     borderopacity="1.0"
     inkscape:pageopacity="0.0"
     inkscape:pageshadow="2"
     inkscape:zoom="2"
     inkscape:cx="-9.7549663"
     inkscape:cy="119.91039"
     inkscape:document-units="px"
     inkscape:current-layer="layer1"
     showgrid="false"
     fit-margin-top="0"
     fit-margin-left="0"
     fit-margin-right="0"
     fit-margin-bottom="0"
     inkscape:window-width="2560"
     inkscape:window-height="1032"
     inkscape:window-x="-4"
     inkscape:window-y="-4"
     inkscape:window-maximized="1" />
  <metadata
     id="metadata7">
    <rdf:RDF>
      <cc:Work
         rdf:about="">
        <dc:format>image/svg+xml</dc:format>
        <dc:type
           rdf:resource="http://purl.org/dc/dcmitype/StillImage" />
        <dc:title></dc:title>
      </cc:Work>
    </rdf:RDF>
  </metadata>
  <g
     inkscape:label="Layer 1"
     inkscape:groupmode="layer"
     id="layer1"
     transform="translate(-243.93098,-395.45933)">
    <path
       style="fill:#000000"
       d="m 280.27409,673.14382 c -9.9,-2.74472 -18.5484,-5.51704 -19.21866,-6.16069 -0.87282,-0.83817 -1.04474,-3.63463 -0.60581,-9.8543 0.59356,-8.41084 0.70268,-8.71743 3.46865,-9.74563 9.71713,-3.61217 10.70486,-3.0944 9.05504,-6.2848 -7.42113,-15.85216 -9.35114,-18.83828 -6.09341,-25.71605 1.42451,-2.85549 0.0408,-3.88856 0.0562,-12.00265 0.0147,-7.72123 -0.44816,-8.85552 0.73129,-14.49269 0.75168,-3.59263 2.74587,-8.46531 4.10745,-11.15226 3.83832,-7.57454 5.16636,-16.14651 3.97217,-34.41315 -0.44852,-6.86065 -0.48107,-12.87414 -0.92628,-13.33141 -0.44521,-0.45728 -0.41283,-2.36978 0.0719,-4.25 0.48478,-1.88023 1.28291,-4.9728 1.77363,-6.87239 0.49073,-1.89959 0.65683,-7.22689 0.36913,-11.83843 -0.52165,-8.36153 0.8193,-15.70777 2.86724,-15.70777 3.29562,0 5.08764,-15.45939 2.49223,-21.5 l -1.28898,-3 -1.63632,3.1431 c -0.89997,1.72871 -3.89202,4.79895 -6.649,6.82276 -7.37422,5.41317 -9.0601,4.46331 -15.91324,-8.96586 -3.66826,-7.1882 -4.88615,-11.51651 -6.65405,-23.64817 -0.41127,-2.82215 -1.08831,-3.78789 -2.9902,-4.26523 -1.48674,-0.37315 -2.69943,-1.57677 -3.06793,-3.04499 -0.76147,-3.03391 0.12247,-4.54161 2.66268,-4.54161 1.16179,0 2.34375,-0.99426 2.89003,-2.43109 0.71605,-1.88335 1.89332,-2.57142 5.22525,-3.05397 5.23585,-0.75829 9.06314,-0.22836 9.58148,1.32665 0.87079,2.61236 2.34213,0.99335 1.71054,-1.88223 -0.44627,-2.03188 -0.15133,-3.82892 0.88902,-5.4167 1.3262,-2.02403 2.63569,-2.46543 8.83839,-2.97919 4.00483,-0.33171 10.966,-0.56169 15.46926,-0.51106 l 8.18774,0.0921 -0.18774,-8.15626 c -0.17842,-7.75119 -0.0521,-8.27307 2.54352,-10.50815 3.21814,-2.77114 10.607,-4.13086 15.58226,-2.8675 5.69701,1.44664 7.68648,5.15736 7.68648,14.33669 l 0,7.80259 7,0.57893 c 26.58696,2.19884 63.5,6.1865 63.5,6.85981 0,0.44518 -0.6375,0.80942 -1.41667,0.80942 -0.77916,0 -1.59725,0.54177 -1.81797,1.20393 -0.39155,1.17464 -29.77496,-1.38683 -82.76536,-7.21499 -22.70608,-2.49734 -21.82238,-2.51063 -21.28123,0.32021 0.41351,2.16317 1.17914,2.38968 12.11132,3.58316 27.46,2.99784 37.96774,4.10811 42.66991,4.50858 29.82387,2.54 57.26762,6.34329 47,6.51348 -1.65,0.0273 -11.1,-0.83412 -21,-1.91437 -22.80344,-2.48823 -21.30502,-2.54005 -21.68358,0.75 -0.2795,2.42917 -0.78309,2.78447 -4.31642,3.04547 l -4,0.29547 -0.29774,10.70453 c -0.25838,9.28955 -0.67031,11.49764 -3.11634,16.70453 -1.55023,3.3 -3.11232,7.2375 -3.47131,8.75 -0.476,2.00547 -1.27026,2.75 -2.93366,2.75 -1.25452,0 -2.75002,-0.46907 -3.32333,-1.04238 -1.61974,-1.61974 -3.53089,1.40002 -4.104,6.48462 -0.71847,6.37424 -3.37062,8.45682 -12.38829,9.72777 -9.76816,1.37673 -19.53052,0.45364 -23.09822,-2.18407 -2.37504,-1.75602 -2.76707,-1.81639 -2.76707,-0.42621 0,0.8908 -0.95854,2.39582 -2.13008,3.34448 -1.6752,1.35649 -2.2806,3.31271 -2.83492,9.16029 -0.40673,4.29073 -0.28895,8.65991 0.2785,10.33058 0.662,1.94908 0.63433,3.90969 -0.0847,6 -0.58742,1.70768 -1.35736,4.94986 -1.71096,7.20483 l -0.64293,4.09995 5.31255,2.37469 c 7.4414,3.32629 15.69197,3.32676 19.23198,10e-4 1.71532,-1.61136 2.58057,-3.48086 2.58057,-5.57559 0,-2.06717 0.85875,-3.95812 2.49606,-5.4963 3.16182,-2.97037 4.1791,-2.13175 1.51794,1.25137 -2.80872,3.57072 -2.73098,9.32417 0.13614,10.07394 2.47561,0.64739 10.96818,-0.78678 13.87677,-2.34341 2.19806,-1.17637 2.66596,-6.03302 1.00269,-10.40774 -1.77231,-4.66155 -2.94991,-17.65865 -1.82387,-20.13004 0.73541,-1.61405 0.71507,-3.23625 -0.0688,-5.48474 -1.41221,-4.05108 -0.36258,-5.95183 1.40515,-2.54453 0.89678,1.72854 1.21522,5.26556 0.97453,10.82447 -0.22105,5.10527 0.22102,10.73805 1.15815,14.75698 1.97325,8.46244 1.708,18.13696 -0.71583,26.10798 -1.06903,3.51561 -1.94713,8.1435 -1.95133,10.28421 -0.004,2.1407 -0.95746,7.08149 -2.11834,10.97953 -1.5472,5.19519 -1.94748,8.47614 -1.49933,12.28923 0.37217,3.1666 0.0242,7.99311 -0.8893,12.33584 -1.88177,8.94566 -1.9058,15.00136 -0.0762,19.21928 0.78343,1.80616 1.96388,5.4106 2.62322,8.00987 0.65934,2.59927 2.60585,6.34677 4.32557,8.32779 2.81858,3.24681 3.3929,3.49993 5.82662,2.56788 3.02827,-1.15975 65.80016,3.71079 65.80016,5.1055 0,1.07789 -2.00976,1.00392 -23.18364,-0.85326 -10.276,-0.90131 -19.42434,-1.35452 -20.32964,-1.00713 -1.22681,0.47077 -1.4855,1.36237 -1.01577,3.501 0.60052,2.73417 0.40401,2.92981 -4.17037,4.15185 l -4.80058,1.28248 4,0.72065 c 2.2,0.39636 14.2375,1.76907 26.75,3.05047 12.5125,1.2814 22.75,2.68915 22.75,3.12833 0,1.1987 -2.24371,1.04564 -31.12928,-2.12363 -17.37703,-1.90656 -27.80042,-2.63992 -30,-2.11069 -1.8539,0.44606 -11.28874,3.33592 -20.96631,6.42192 -9.67758,3.08599 -18.90258,5.57434 -20.5,5.52965 -1.77571,-0.0497 1.9533,-1.63499 9.59559,-4.07938 6.875,-2.19896 20.28771,-6.47781 29.80603,-9.50855 14.02675,-4.46627 17.23679,-5.82501 16.94061,-7.17062 -0.20098,-0.91311 -0.78869,-1.59491 -1.30603,-1.51512 -0.51734,0.0798 -15.4567,4.72861 -33.19858,10.33068 -17.74189,5.60208 -32.81689,9.97668 -33.5,9.72134 -1.57897,-0.59019 -2.33029,-0.31136 20.75797,-7.70371 10.45,-3.34586 24.85,-7.96446 32,-10.26355 l 13,-4.18017 -5.5,-0.82078 c -7.56245,-1.12856 -11.86525,-0.2135 -12.99734,2.7641 -0.49881,1.31197 -1.79888,2.86277 -2.88905,3.44621 -2.29143,1.22634 -8.698,1.28928 -11.61361,0.1141 -1.1,-0.44337 -2.45,-0.47414 -3,-0.0684 -0.55,0.40577 -4.28641,1.72037 -8.30313,2.92133 -6.0913,1.82126 -7.20896,2.48027 -6.73563,3.9716 0.77551,2.44343 -2.83766,3.95728 -11.3285,4.74642 -4.43262,0.41197 -7.54627,0.22477 -8.97441,-0.53955 -1.71378,-0.91718 -2.12971,-0.89905 -1.9226,0.0838 0.14965,0.71024 -1.36217,1.67274 -3.48573,2.21919 -2.0625,0.53074 -3.75,1.22716 -3.75,1.54759 0,0.32044 26.8788,6.87857 59.73066,14.57364 34.29827,8.03386 58.39348,14.12158 56.59014,14.29766 -1.72728,0.16864 -28.99686,-5.79386 -60.59907,-13.25 -31.60221,-7.45609 -57.96778,-13.55658 -58.59015,-13.55658 -0.7398,0 -1.13158,2.55296 -1.13158,7.37374 l 0,7.37375 20.25,5.71928 c 11.1375,3.14561 20.4375,5.90242 20.66667,6.12626 1.47529,1.44097 -7.90309,-0.46974 -23.41667,-4.77081 z m 9.91547,-30.36181 c 4.95885,-0.74363 5.53378,-2.15213 1.67138,-4.09459 -3.57998,-1.80043 -4.0699,-2.61347 -7.2264,-11.99241 -1.64249,-4.88038 -3.2409,-9.54841 -3.55201,-10.37341 -1.55346,-4.11951 -1.04271,-11.75225 1.25804,-18.80042 1.33844,-4.10018 2.43352,-9.43088 2.43352,-11.84601 0,-4.67837 3.3256,-15.26927 6.85748,-21.83876 1.17839,-2.19186 2.14252,-4.91436 2.14252,-6.05 0,-1.13565 0.39019,-2.49231 0.86708,-3.01481 1.58603,-1.73769 4.13292,-10.75221 4.13292,-14.62814 l 0,-3.82186 -5.75,-0.022 c -3.4804,-0.0133 -7.40961,-0.7754 -9.95458,-1.93078 -4.14714,-1.88273 -4.21298,-1.88237 -4.81875,0.0263 -0.33779,1.06428 -0.48663,6.54563 -0.33076,12.18077 0.34246,12.38051 0.22901,19.80889 -5.11634,32.32005 -9.617,16.01407 -1.02173,30.56834 -6.77524,42.01563 -0.37395,2.79236 7.12152,19.15826 9.67254,21.1194 0.23147,3.37533 6.2607,1.87673 8.69528,1.86057 0.61718,-0.22498 3.22418,-0.72427 5.79332,-1.10953 z m -11.41547,-3.46041 c 0,-0.55 2.025,-1 4.5,-1 2.475,0 4.5,0.45 4.5,1 0,0.55 -2.025,1 -4.5,1 -2.475,0 -4.5,-0.45 -4.5,-1 z m -4.63592,-9.63957 c 0.34975,-2.55177 0.6496,-5.58927 0.66633,-6.75 0.0236,-1.64056 0.20699,-1.77646 0.82353,-0.61043 1.09334,2.06777 0.19416,12 -1.08638,12 -0.66123,0 -0.80804,-1.68804 -0.40348,-4.63957 z m 0.63592,-32.64248 c 0,-3.52005 -0.0799,-8.60911 0.73918,-11.30902 2.69193,-18.61963 0.55448,6.72187 0.52269,11.28205 -0.007,2.85504 0.28813,5.4691 -0.26187,5.80902 -0.62688,0.38743 -1,-1.76997 -1,-5.78205 z m 5.97525,-28.28305 c -0.0432,-0.81243 1.65978,0.52788 2.12994,1.19185 0.85367,1.02861 0.85179,1.37325 -0.007,1.37325 -0.63096,0 -1.58606,-1.15429 -2.12244,-2.5651 z m 3.70797,-7.46944 c -1.47577,-1.16084 -2.68322,-2.75296 -2.68322,-3.53804 0,-2.08097 1.7596,-1.74513 3,0.57258 0.64046,1.19671 2.09382,2 3.61852,2 1.59382,0 2.39227,0.46815 2.13195,1.25 -0.68946,2.0707 -3.22418,1.95182 -6.06725,-0.28454 z m -1.68322,-9.99457 c 0,-1.39155 6.13232,-1.98143 7.40148,-0.71196 0.98781,0.98804 0.3598,1.26062 -3.08035,1.33696 -2.37662,0.0527 -4.32113,-0.22851 -4.32113,-0.625 z m 20.42905,83.82075 c 3.88902,-1.21459 7.20569,-2.28683 7.37038,-2.38275 0.96855,-0.56415 -1.10822,-7.39431 -4.68244,-9.99252 -2.33309,-1.696 -8.78179,-4.946 -8.98321,-6 -0.34752,-1.8185 -0.26905,-1.82895 1.53659,-0.20451 1.04656,0.94153 3.57937,2.41237 5.62849,3.26854 2.93137,1.22481 4.18939,2.61871 5.90079,6.53814 1.42108,3.25455 2.78304,4.98146 3.92872,4.98146 0.96448,0 2.03171,0.45 2.37163,1 1.03129,1.66866 5.52958,1.12189 8.22713,-1 1.39842,-1.1 2.0319,-2 1.40773,-2 -0.62417,0 -1.13486,-0.56829 -1.13486,-1.26287 0,-0.69458 -0.97569,-1.70708 -2.1682,-2.25 -2.63986,-1.20186 -3.26992,-2.43223 -4.85822,-9.48713 -0.68103,-3.025 -1.88883,-6.7831 -2.68399,-8.35134 -1.02703,-2.02552 -1.29057,-4.77698 -0.90991,-9.5 0.29471,-3.65676 0.96378,-12.27366 1.48681,-19.14866 0.52304,-6.875 1.66704,-14.96057 2.54224,-17.96793 1.54723,-5.3166 2.13666,-12.03207 1.05609,-12.03207 -0.29435,0 -1.60268,0.69945 -2.9074,1.55434 -1.48874,0.97545 -2.60336,1.18035 -2.99283,0.55017 -0.34133,-0.55229 0.27263,-1.48221 1.36437,-2.06649 1.11907,-0.59891 1.16884,-2.13556 2.46252,-2.87079 1.09494,-0.62228 -0.61872,-0.0884 2.91514,0.92376 l 1.83245,-4.09099 c 0.60851,-1.35853 1.26626,-4.7025 1.54653,-7.39444 0.46372,-4.45389 0.34328,-4.82922 -1.33801,-4.16993 -4.72982,1.85472 -13.70959,2.81939 -15.54938,1.67042 -2.96327,-1.85059 -4.9711,0.0232 -5.35167,4.99432 -0.18526,2.4198 0.31349,6.32786 1.10832,8.68458 0.79483,2.35672 1.44514,7.16492 1.44514,10.6849 0.1939,8.05363 -1.04376,11.64802 -1.46877,18.82239 -6.19933,8.16171 1.34742,18.1275 -0.16026,24.15437 -3.63209,16.94076 -8.29976,20.86342 -3.01181,7.5771 3.24869,-5.20883 1.31318,-12.78801 -0.0325,-18.303 -1.35643,-5.29066 -0.0407,-8.64993 0.88788,-12.85276 2.51994,-11.4053 4.50424,-15.44746 0.60165,-31.27631 l -2.39897,4.95418 c -1.31943,2.7248 -2.40308,5.97585 -2.40811,7.22456 -0.005,1.24871 -1.76151,5.9763 -3.90329,10.50577 -2.88418,6.09949 -4.1679,10.43842 -4.94967,16.72962 -0.58053,4.67183 -1.9741,11.14038 -3.09682,14.37456 -2.41947,6.96966 -3.36457,10.85401 0.71524,22.99467 1.57101,4.675 4.24964,9.0137 4.42475,10.09988 0.29092,1.80461 3.97877,4.47466 6.2297,4.51038 0.51098,0.008 4.11098,-0.97902 8,-2.19362 z m 10.252,-18.65192 c -0.9866,-2.94816 -1.54935,-5.60475 -1.25056,-5.90354 0.88335,-0.88336 3.70997,6.77855 3.36309,9.11609 -0.22149,1.49257 -0.86591,0.5126 -2.11253,-3.21255 z m -4.80581,-41.58425 c 1.40585,1.30654 2.11189,10.06304 1.08403,13.44453 -1.51655,-0.69023 -2.38561,-14.59828 -1.08403,-13.44453 z m 3.07892,-17.64112 c -0.61391,-1.1471 -0.89752,-2.30432 -0.63024,-2.5716 0.59357,-0.59357 4.67608,2.79346 4.67608,3.87949 0,1.6424 -2.98297,0.6781 -4.04584,-1.30789 z m 1.07674,-67.93538 c 5.38002,-1.42932 6.94473,-3.03793 7.27487,-7.47897 0.16355,-2.2 1.15383,-5.575 2.20062,-7.5 1.28014,-2.35411 1.92946,-5.62807 1.98331,-10 0.0468,-3.802 0.79196,-8.10723 1.79517,-10.37212 2.08048,-4.69695 2.14728,-6.8915 0.31751,-10.4299 -2.64731,-5.11932 -4.90126,-6.34829 -11.25485,-6.13668 -8.2695,0.27541 -21.05281,-1.94064 -26.34753,-4.56747 -4.58983,-2.27713 -4.25707,-1.18244 -8.12854,1.60284 -2.36425,1.70092 -5.23628,7.63063 -5.23628,10.81104 0,1.78823 0.0674,1.4033 2.75,0.62866 2.75273,-0.7949 5.42364,-2.12278 -3.75,2.70194 -5.73,3.04052 -5.29786,6.50671 -2.27325,10.66432 4.08678,5.61767 3.21421,5.34734 -3.04208,-0.94247 -4.81636,-4.84216 -8.33809,-8.54048 -8.85092,-11.2741 -0.64001,-3.41154 -0.3723,-4.01388 3.41949,-7.69369 2.26263,-2.1958 4.56335,-3.99237 5.11272,-3.99237 0.54938,0 1.02695,-0.1125 1.06127,-0.25 0.0343,-0.1375 0.28678,-2.5 0.561,-5.25 0.76797,-7.70146 0.54573,-7.50603 8.40008,-7.38647 7.27057,0.11067 8.6319,-0.24408 7.56446,-1.97122 -0.80755,-1.30664 -15.4367,-0.51273 -17.17776,0.93223 -0.77576,0.64382 -1.29621,2.9674 -1.24426,5.55516 0.0491,2.44663 -0.10029,4.63799 -0.33199,4.8697 -1.00493,1.00492 -4.69285,-0.85188 -5.14787,-2.59185 -0.62363,-2.38477 -6.22874,-2.57631 -9.18607,-0.31392 -1.85336,1.41785 -1.87655,1.62167 -0.3163,2.77997 0.92604,0.68746 1.99424,2.4872 2.37378,3.99942 0.56977,2.27013 0.31981,2.84631 -1.4337,3.30486 -1.76716,0.46212 -2.12378,1.30917 -2.12378,5.04441 0,2.46896 0.70717,7.21807 1.57148,10.55357 1.65908,6.4026 8.33705,19.97939 11.32903,23.03275 1.70613,1.74112 1.9836,1.63645 7.43587,-2.80494 3.11499,-2.53746 5.66362,-5.19611 5.66362,-5.90813 0,-0.71202 1.32293,-3.26437 2.93984,-5.67189 1.61691,-2.40752 2.80286,-4.51429 2.63544,-4.6817 -1.91171,1.03936 4.05,-7.35283 3.97504,-5.17814 -0.38645,1.33991 -1.68087,4.46323 -2.87648,6.94072 -2.11952,4.39197 -2.13121,4.62934 -0.46761,9.5 0.93843,2.74751 1.72593,7.27196 1.75,10.05434 0.0526,6.077 1.27124,7.92256 6.54377,9.90995 4.19607,1.58164 13.57611,1.35784 20.5309,-0.48985 z m -1.0309,-8.46045 c 0,-1.42973 1.34749,-3.45774 2.20875,-5.587 1.03517,-2.55923 1.6107,-4.51101 2.28346,-8.70951 0.48304,-3.01453 0.39714,-5.83451 0.79124,-5.97201 0.99694,3.96523 0.36947,7.57915 -2.14534,15.68068 -0.90096,1.88687 -1.51368,3.99044 -1.36159,4.67459 0.15209,0.68415 -0.18541,1.52941 -0.75,1.87834 -0.60147,0.37173 -1.02652,-0.44195 -1.02652,-1.96509 z m -21,-35.15468 c 0.49779,9.84955 8.88081,6.54232 17.08439,10.52639 -20.53407,-2.82642 -15.82515,-3.90523 -17.08439,-10.52639 z m 40,26.11472 c 0,-1.38679 1.1743,-4.29592 2.60955,-6.46474 2.2517,-3.40255 2.72948,-5.55016 3.48411,-15.66112 0.481,-6.4448 0.76921,-11.79875 0.64045,-11.89767 -0.12876,-0.0989 -2.09579,-0.41713 -4.37117,-0.70714 -4.05212,-0.51645 -4.1482,-0.4586 -4.67991,2.81796 -0.29857,1.83988 -0.0758,4.60275 0.49496,6.1397 0.82137,2.21162 0.61343,3.90204 -0.99698,8.10492 -1.64398,4.29045 -1.83084,5.89557 -0.97288,8.35672 0.75485,2.16536 0.74613,4.0752 -0.0301,6.60453 -1.25538,4.09026 -0.84594,5.22828 1.88099,5.22828 1.40811,0 1.94098,-0.69222 1.94098,-2.52144 z m -59.51026,-22.46209 c 0.88562,-1.375 2.13783,-4.3 2.78269,-6.5 0.64486,-2.2 1.49277,-5.0125 1.88424,-6.25 0.50297,-1.58996 -1.32809,-3.26647 -2.30291,-3.26647 -0.75873,0 -1.84018,1.0125 -2.40323,2.25 -0.56305,1.2375 -1.54234,2.14664 -2.17619,2.02031 -0.63385,-0.12632 -1.43487,0.66013 -1.78005,1.74768 -0.34517,1.08755 -1.77157,2.26448 -3.16976,2.61541 -2.26586,0.56869 -2.48096,1.0152 -1.97905,4.10809 0.30971,1.90853 1.31448,4.61679 2.23283,6.01837 1.58207,2.41454 3.3573,3.46483 4.30306,1.6607 0.54899,-1.04725 1.72276,-3.02909 2.60837,-4.40409 z m 55.16518,-11.47334 c -0.32568,-0.84872 -1.35102,-1.54313 -2.27852,-1.54313 -1.53891,0 -1.52762,0.17542 0.12915,2.00613 1.98964,2.19852 3.08052,1.96353 2.14937,-0.463 z m -72.78138,-1.11682 c 1.08533,-0.98804 -1.12312,-3.42421 -3.09216,-3.411 -3.28953,0.0221 -5.18082,1.50139 -4.42792,3.4634 0.50501,1.31604 1.35002,1.5295 3.89571,0.98411 1.78796,-0.38305 3.41892,-0.84948 3.62437,-1.03651 z m 67.07083,-2.89193 c 1.30593,-0.80711 1.38898,-4.21033 0.12187,-4.99344 -1.57647,-0.97431 -23.90166,-3.52106 -36.31624,-4.14278 l -11.75,-0.58844 0,3.22681 0,3.22681 4.25,-0.69846 c 6.40064,-1.05189 9.83231,-0.69984 14.31572,1.46865 2.23615,1.08156 6.28615,2.01133 9,2.06615 2.71386,0.0548 6.05928,0.4732 7.43428,0.92973 2.6976,0.89565 11.22166,0.56966 12.94437,-0.49503 z m -11.94437,-2.5934 c 0,-1.13246 0.45,-1.7809 1,-1.44098 0.55,0.33992 1,1.26648 1,2.05902 0,0.79254 -0.45,1.44098 -1,1.44098 -0.55,0 -1,-0.92656 -1,-2.05902 z m 37.39626,2.46878 c 1.02325,-2.66656 -0.0118,-3.10352 -9.09747,-3.84073 -4.81575,-0.39075 -10.00305,-0.95988 -11.52735,-1.26474 -2.56436,-0.51287 -2.77144,-0.31638 -2.77144,2.62973 0,1.75121 0.34862,2.96856 0.77471,2.70522 0.42609,-0.26334 2.33859,-0.11096 4.25,0.33862 1.91141,0.44958 6.68965,0.86348 10.6183,0.91978 5.67111,0.0813 7.26876,-0.22533 7.75325,-1.48788 z m 9.35374,-11.09909 c -0.9625,-0.25152 -2.5375,-0.25152 -3.5,0 -0.9625,0.25153 -0.175,0.45733 1.75,0.45733 1.925,0 2.7125,-0.2058 1.75,-0.45733 z m -7.48625,-1.0146 c -1.22994,-0.23736 -3.47994,-0.24351 -5,-0.0136 -1.52006,0.22985 -0.51375,0.42406 2.23625,0.43157 2.75,0.008 3.99369,-0.18056 2.76375,-0.41792 z m -11.01375,-1.0018 c -1.2375,-0.23836 -3.2625,-0.23836 -4.5,0 -1.2375,0.23835 -0.225,0.43337 2.25,0.43337 2.475,0 3.4875,-0.19502 2.25,-0.43337 z m -14.66386,-1.43365 c 0.84364,-1.36504 0.73915,-13.10308 -0.15278,-17.16404 -0.84695,-3.85612 -5.25611,-5.64619 -12.21311,-4.95839 -7.68677,0.75996 -9.38849,3.25255 -9.009,13.19593 l 0.28875,7.56588 3.5,0.28568 c 3.15886,0.25784 14.48108,1.70348 16.19098,2.0673 0.38004,0.0809 1.00787,-0.3657 1.39516,-0.99236 z m 6.68289,0.48344 c -0.67703,-0.27392 -2.02703,-0.29059 -3,-0.0371 -0.97297,0.25355 -0.41903,0.47767 1.23097,0.49804 1.65,0.0204 2.44606,-0.18706 1.76903,-0.46098 z"
       id="path3347"
       inkscape:connector-curvature="0"
       sodipodi:nodetypes="csssccssssscsssscsssssssssssssscsssscsssssssscssscssssssscsssssscscssssssscsssscssscsssssssscsssssscssscsssscsssscsssscssssssscssccsssssssssscssssccccssssssscssssccssccsccsssssssscsscssssssssssssssssssssscsssssscccccscscssssscsscssccccsssssssssssssscssssscssssscsssssssssssccsssssscsccssscscssscsscsscssssssscsssssssssssssssssscccssssssssssssssssssscsscscccssssscsscscscccccc" />
  </g>
</svg>
